<?xml version="1.0" encoding="UTF-8" standalone="no"?><!DOCTYPE svg PUBLIC "-//W3C//DTD SVG 1.1//EN" "http://www.w3.org/Graphics/SVG/1.1/DTD/svg11.dtd"><svg width="100%" height="100%" viewBox="0 0 8000 1012" version="1.1" xmlns="http://www.w3.org/2000/svg" xmlns:xlink="http://www.w3.org/1999/xlink" xml:space="preserve" xmlns:serif="http://www.serif.com/" style="fill-rule:evenodd;clip-rule:evenodd;stroke-linejoin:round;stroke-miterlimit:2;"><g id="Layer-1" serif:id="Layer 1"><rect x="0" y="974.642" width="8000" height="29.167" style="fill:#232323;"/><rect x="0.153" y="930.896" width="7999.85" height="29.162" style="fill:#232323;"/></g><g id="Layer-2" serif:id="Layer 2"><path d="M854.622,633.127c-11.942,-17.854 15.933,-43.058 2.388,-76.4c-6.325,-15.571 -17.142,-24.175 -14.33,-35.471c2.313,-9.291 11.546,-13.829 16.721,-16.371c1.521,-0.75 3.442,-1.52 7.013,-2.483c9.196,-2.479 15.708,-2.462 28.812,-2.779c19.417,-0.471 24.367,-0.971 31.054,2.517c3.78,1.975 6.388,4.32 7.163,5.037c5.317,4.925 8.646,11.263 9.558,15.117c2.788,11.791 -12.596,19.166 -19.6,34.283c-12.708,27.442 15.713,51.25 5.267,71.092c-11.329,21.525 -61.175,24.704 -74.046,5.458" style="fill:#3d3d3d;fill-rule:nonzero;"/><path d="M1004.95,631.162c-8.954,-12.509 11.946,-30.163 1.791,-53.521c-4.741,-10.904 -12.854,-16.933 -10.745,-24.846c1.737,-6.508 8.658,-9.687 12.533,-11.471c1.142,-0.521 2.583,-1.062 5.262,-1.737c6.892,-1.738 11.775,-1.725 21.596,-1.946c14.559,-0.333 18.267,-0.683 23.279,1.762c2.834,1.384 4.788,3.025 5.371,3.53c3.984,3.45 6.479,7.891 7.163,10.587c2.091,8.263 -9.442,13.429 -14.692,24.017c-9.529,19.225 11.779,35.9 3.95,49.804c-8.492,15.075 -45.858,17.3 -55.508,3.821" style="fill:#3d3d3d;fill-rule:nonzero;"/><path d="M1139.46,761.595l-324.95,0c-3.775,1.217 -9.542,2.338 -15.113,0c-10.533,-4.416 -13.241,-18.191 -15.112,-27.708c-0.896,-4.554 -2.221,-13.179 2.516,-47.862c3.605,-26.371 5.846,-32.196 10.075,-37.784c6.313,-8.333 14.475,-12.75 20.155,-15.112c4.774,-1.413 11.7,-3.3 20.149,-5.038c23.959,-4.933 42.521,-5.037 57.938,-5.041c50.083,-0.009 75.125,-0.013 83.125,-0c45.683,0.075 43.092,-0.7 62.975,-0c21.954,0.779 33.904,2.029 60.458,2.52c16.005,0.296 29.13,0.163 37.784,0l-0,136.025Z" style="fill:#191919;fill-rule:nonzero;"/><path d="M1363.65,922.81c-6.496,0.004 -16.1,0.008 -27.709,0c-32.75,-0.029 -128.275,-0.208 -272.05,-2.521c-127.516,-2.046 -243.116,-4.966 -332.504,-7.554c-4.487,-4.496 -11.841,-13.292 -12.596,-25.192c-0.575,-9.008 2.884,-15.87 5.038,-20.15c21.375,-42.512 32.067,-63.766 32.746,-65.496c7.829,-19.854 9.508,-34.137 22.671,-40.304c3.9,-1.825 7.562,-2.358 10.075,-2.516l544.1,-0c9.337,0.82 24.508,3.683 35.266,15.112c5.538,5.883 7.688,11.679 10.075,75.571c1.009,26.967 1.375,45.95 -10.075,65.492c-1.912,3.27 -3.737,5.837 -5.037,7.558" style="fill:#701919;fill-rule:nonzero;"/><rect x="1139.46" y="529.85" width="199" height="229.229" style="fill:#191919;"/><rect x="1164.65" y="550" width="67.433" height="123.429" style="fill:#ffb031;"/><rect x="1243.33" y="550" width="67.429" height="123.429" style="fill:#ffb031;"/><path d="M973.209,912.734c-0,44.517 -38.346,80.609 -85.646,80.609c-47.3,-0 -85.646,-36.092 -85.646,-80.609c0,-44.516 38.346,-80.608 85.646,-80.608c47.3,-0 85.646,36.092 85.646,80.608" style="fill:#3d3d3d;fill-rule:nonzero;"/><path d="M1335.94,910.215c0,44.517 -38.346,80.609 -85.646,80.609c-47.3,-0 -85.646,-36.092 -85.646,-80.609c0,-44.516 38.346,-80.608 85.646,-80.608c47.3,0 85.646,36.092 85.646,80.608" style="fill:#3d3d3d;fill-rule:nonzero;"/><path d="M1339.88,529.849l-219.462,0c-21.479,0 -38.888,-17.412 -38.888,-38.887l0,-28.021c0,-21.479 17.409,-38.888 38.888,-38.888l219.462,0c21.479,0 38.888,17.409 38.888,38.888l-0,28.021c-0,21.475 -17.409,38.887 -38.888,38.887" style="fill:#701919;fill-rule:nonzero;"/><rect x="869.933" y="625.571" width="15.113" height="133.504" style="fill:#e59033;"/><rect x="942.983" y="625.571" width="15.112" height="133.504" style="fill:#e59033;"/><rect x="1000.92" y="625.571" width="15.112" height="133.504" style="fill:#e59033;"/><rect x="1053.82" y="625.571" width="15.112" height="133.504" style="fill:#e59033;"/><rect x="784.283" y="751.521" width="556.696" height="10.075" style="fill:#e59033;"/><path d="M948.019,912.438c0,30.771 -26.504,55.712 -59.196,55.712c-32.691,0 -59.196,-24.941 -59.196,-55.712c0,-30.771 26.505,-55.713 59.196,-55.713c32.692,0 59.196,24.942 59.196,55.713" style="fill:#232323;fill-rule:nonzero;"/><path d="M1308.37,909.655c0,30.771 -26.504,55.713 -59.196,55.713c-32.691,-0 -59.195,-24.942 -59.195,-55.713c-0,-30.77 26.504,-55.712 59.195,-55.712c32.692,-0 59.196,24.942 59.196,55.712" style="fill:#232323;fill-rule:nonzero;"/><path d="M1407.73,869.912l-30.229,-0c-13.216,-0 -23.929,-10.713 -23.929,-23.929c0,-13.217 10.713,-23.934 23.929,-23.934l30.229,0c13.217,0 23.929,10.717 23.929,23.934c0,13.216 -10.712,23.929 -23.929,23.929" style="fill:#701919;fill-rule:nonzero;"/><rect x="4061.46" y="468.208" width="479.412" height="277.267" style="fill:#191919;"/><rect x="4408.33" y="510.421" width="84.933" height="129.679" style="fill:#ffb031;"/><path d="M4540.28,486.034l-476.388,0c-21.479,0 -38.892,-17.412 -38.892,-38.887l0,-58.617c0,-21.479 17.413,-38.888 38.892,-38.888l476.387,0c21.48,0 38.888,17.409 38.888,38.888l0,58.617c0,21.475 -17.408,38.887 -38.887,38.887" style="fill:#701919;fill-rule:nonzero;"/><rect x="4307.53" y="510.421" width="84.933" height="129.679" style="fill:#ffb031;"/><rect x="4207.93" y="510.421" width="84.933" height="129.679" style="fill:#ffb031;"/><rect x="4107.13" y="510.421" width="84.933" height="129.679" style="fill:#ffb031;"/></g><g id="Layer-4" serif:id="Layer 4"><path d="M2057.63,905.178l-30.229,-0c-13.216,-0 -23.929,-10.713 -23.929,-23.93c0,-13.216 10.713,-23.933 23.929,-23.933l30.229,0c13.217,0 23.93,10.717 23.93,23.933c-0,13.217 -10.713,23.929 -23.93,23.929" style="fill:#701919;fill-rule:nonzero;"/><path d="M1962.84,930.367l-412.455,0c-40.525,0 -73.379,-32.854 -73.379,-73.379l0,-59.796c0,-40.529 32.854,-73.383 73.379,-73.383l412.455,-0c40.525,-0 73.379,32.854 73.379,73.383l-0,59.796c-0,40.525 -32.854,73.379 -73.379,73.379" style="fill:#701919;fill-rule:nonzero;"/><path d="M1983.32,905.178c0,44.516 -38.345,80.608 -85.645,80.608c-47.3,-0 -85.646,-36.092 -85.646,-80.608c-0,-44.517 38.346,-80.609 85.646,-80.609c47.3,0 85.645,36.092 85.645,80.609" style="fill:#3d3d3d;fill-rule:nonzero;"/><path d="M1693.64,905.178c0,44.516 -38.345,80.608 -85.645,80.608c-47.3,-0 -85.646,-36.092 -85.646,-80.608c-0,-44.517 38.346,-80.609 85.646,-80.609c47.3,0 85.645,36.092 85.645,80.609" style="fill:#3d3d3d;fill-rule:nonzero;"/><path d="M1957.3,904.618c-0,30.77 -26.504,55.712 -59.196,55.712c-32.692,0 -59.196,-24.942 -59.196,-55.712c0,-30.771 26.504,-55.713 59.196,-55.713c32.692,0 59.196,24.942 59.196,55.713" style="fill:#232323;fill-rule:nonzero;"/><path d="M1667.19,900.419c0,30.771 -26.504,55.713 -59.196,55.713c-32.691,-0 -59.195,-24.942 -59.195,-55.713c-0,-30.771 26.504,-55.712 59.195,-55.712c32.692,-0 59.196,24.941 59.196,55.712" style="fill:#232323;fill-rule:nonzero;"/><path d="M1468.19,900.139l-30.229,0c-13.217,0 -23.93,-10.712 -23.93,-23.929c0,-13.217 10.713,-23.933 23.93,-23.933l30.229,-0c13.216,-0 23.929,10.716 23.929,23.933c-0,13.217 -10.713,23.929 -23.929,23.929" style="fill:#701919;fill-rule:nonzero;"/><path d="M1414.03,861.095l0,-35.267c0,-11.825 9.588,-21.412 21.413,-21.412c11.825,-0 21.408,9.587 21.408,21.412l0,35.267c0,11.825 -9.583,21.413 -21.408,21.413c-11.825,-0 -21.413,-9.588 -21.413,-21.413" style="fill:#701919;fill-rule:nonzero;"/><path d="M5246.63,923.272l-30.229,0c-13.217,0 -23.929,-10.712 -23.929,-23.929c-0,-13.217 10.712,-23.933 23.929,-23.933l30.229,-0c13.217,-0 23.929,10.716 23.929,23.933c0,13.217 -10.712,23.929 -23.929,23.929" style="fill:#701919;fill-rule:nonzero;"/><path d="M5151.84,948.462l-412.454,-0c-40.525,-0 -73.379,-32.854 -73.379,-73.379l-0,-59.796c-0,-40.529 32.854,-73.384 73.379,-73.384l412.454,0c40.525,0 73.379,32.855 73.379,73.384l0,59.796c0,40.525 -32.854,73.379 -73.379,73.379" style="fill:#701919;fill-rule:nonzero;"/><path d="M5172.32,923.272c0,44.517 -38.346,80.608 -85.646,80.608c-47.3,0 -85.645,-36.091 -85.645,-80.608c-0,-44.517 38.345,-80.608 85.645,-80.608c47.3,-0 85.646,36.091 85.646,80.608" style="fill:#3d3d3d;fill-rule:nonzero;"/><path d="M4882.64,923.272c0,44.517 -38.345,80.608 -85.645,80.608c-47.3,0 -85.646,-36.091 -85.646,-80.608c-0,-44.517 38.346,-80.608 85.646,-80.608c47.3,-0 85.645,36.091 85.645,80.608" style="fill:#3d3d3d;fill-rule:nonzero;"/><path d="M5146.3,922.712c-0,30.771 -26.504,55.713 -59.196,55.713c-32.692,-0 -59.196,-24.942 -59.196,-55.713c0,-30.771 26.504,-55.712 59.196,-55.712c32.692,-0 59.196,24.941 59.196,55.712" style="fill:#232323;fill-rule:nonzero;"/><path d="M4856.19,918.514c-0,30.771 -26.504,55.712 -59.196,55.712c-32.692,0 -59.196,-24.941 -59.196,-55.712c0,-30.771 26.504,-55.713 59.196,-55.713c32.692,0 59.196,24.942 59.196,55.713" style="fill:#232323;fill-rule:nonzero;"/><path d="M4657.19,918.234l-30.229,-0c-13.217,-0 -23.929,-10.713 -23.929,-23.929c-0,-13.217 10.712,-23.934 23.929,-23.934l30.229,0c13.217,0 23.929,10.717 23.929,23.934c0,13.216 -10.712,23.929 -23.929,23.929" style="fill:#701919;fill-rule:nonzero;"/><path d="M4603.03,879.19l0,-35.267c0,-11.825 9.588,-21.413 21.413,-21.413c11.825,0 21.408,9.588 21.408,21.413l0,35.267c0,11.825 -9.583,21.412 -21.408,21.412c-11.825,0 -21.413,-9.587 -21.413,-21.412" style="fill:#701919;fill-rule:nonzero;"/><path d="M5880.99,925.791l-30.23,-0c-13.216,-0 -23.929,-10.713 -23.929,-23.929c0,-13.217 10.713,-23.934 23.929,-23.934l30.23,0c13.216,0 23.929,10.717 23.929,23.934c-0,13.216 -10.713,23.929 -23.929,23.929" style="fill:#701919;fill-rule:nonzero;"/><path d="M5786.2,950.981l-412.454,-0c-40.525,-0 -73.38,-32.854 -73.38,-73.379l0,-59.796c0,-40.529 32.855,-73.383 73.38,-73.383l412.454,-0c40.525,-0 73.379,32.854 73.379,73.383l-0,59.796c-0,40.525 -32.854,73.379 -73.379,73.379" style="fill:#701919;fill-rule:nonzero;"/><path d="M5806.68,925.791c-0,44.516 -38.346,80.608 -85.646,80.608c-47.3,0 -85.646,-36.092 -85.646,-80.608c-0,-44.517 38.346,-80.609 85.646,-80.609c47.3,0 85.646,36.092 85.646,80.609" style="fill:#3d3d3d;fill-rule:nonzero;"/><path d="M5517,925.791c-0,44.516 -38.346,80.608 -85.646,80.608c-47.3,0 -85.646,-36.092 -85.646,-80.608c0,-44.517 38.346,-80.609 85.646,-80.609c47.3,0 85.646,36.092 85.646,80.609" style="fill:#3d3d3d;fill-rule:nonzero;"/><path d="M5780.66,925.231c0,30.771 -26.504,55.713 -59.196,55.713c-32.691,-0 -59.196,-24.942 -59.196,-55.713c0,-30.771 26.505,-55.712 59.196,-55.712c32.692,-0 59.196,24.941 59.196,55.712" style="fill:#232323;fill-rule:nonzero;"/><path d="M5490.55,921.033c-0,30.771 -26.505,55.712 -59.196,55.712c-32.692,0 -59.196,-24.941 -59.196,-55.712c-0,-30.771 26.504,-55.713 59.196,-55.713c32.691,0 59.196,24.942 59.196,55.713" style="fill:#232323;fill-rule:nonzero;"/><path d="M5291.55,920.753l-30.229,-0c-13.217,-0 -23.929,-10.713 -23.929,-23.929c-0,-13.217 10.712,-23.934 23.929,-23.934l30.229,0c13.217,0 23.929,10.717 23.929,23.934c0,13.216 -10.712,23.929 -23.929,23.929" style="fill:#701919;fill-rule:nonzero;"/><path d="M5237.39,881.709l0,-35.267c0,-11.825 9.588,-21.412 21.413,-21.412c11.825,-0 21.408,9.587 21.408,21.412l-0,35.267c-0,11.825 -9.583,21.412 -21.408,21.412c-11.825,0 -21.413,-9.587 -21.413,-21.412" style="fill:#701919;fill-rule:nonzero;"/><path d="M6518.29,928.31l-30.229,-0c-13.217,-0 -23.929,-10.713 -23.929,-23.929c-0,-13.217 10.712,-23.934 23.929,-23.934l30.229,0c13.217,0 23.929,10.717 23.929,23.934c0,13.216 -10.712,23.929 -23.929,23.929" style="fill:#701919;fill-rule:nonzero;"/><path d="M6423.5,953.5l-412.454,-0c-40.525,-0 -73.379,-32.855 -73.379,-73.38l-0,-59.795c-0,-40.53 32.854,-73.384 73.379,-73.384l412.454,0c40.525,0 73.379,32.854 73.379,73.384l0,59.795c0,40.525 -32.854,73.38 -73.379,73.38" style="fill:#701919;fill-rule:nonzero;"/><path d="M6443.99,928.31c-0,44.517 -38.346,80.608 -85.646,80.608c-47.3,0 -85.646,-36.091 -85.646,-80.608c-0,-44.517 38.346,-80.608 85.646,-80.608c47.3,-0 85.646,36.091 85.646,80.608" style="fill:#3d3d3d;fill-rule:nonzero;"/><path d="M6154.3,928.31c0,44.517 -38.346,80.608 -85.646,80.608c-47.3,0 -85.645,-36.091 -85.645,-80.608c-0,-44.517 38.345,-80.608 85.645,-80.608c47.3,-0 85.646,36.091 85.646,80.608" style="fill:#3d3d3d;fill-rule:nonzero;"/><path d="M6417.96,927.75c-0,30.771 -26.505,55.713 -59.196,55.713c-32.692,-0 -59.196,-24.942 -59.196,-55.713c-0,-30.771 26.504,-55.712 59.196,-55.712c32.691,-0 59.196,24.941 59.196,55.712" style="fill:#232323;fill-rule:nonzero;"/><path d="M6127.85,923.552c-0,30.771 -26.505,55.712 -59.196,55.712c-32.692,0 -59.196,-24.941 -59.196,-55.712c-0,-30.771 26.504,-55.713 59.196,-55.713c32.691,0 59.196,24.942 59.196,55.713" style="fill:#232323;fill-rule:nonzero;"/><path d="M5928.85,923.272l-30.23,0c-13.216,0 -23.929,-10.712 -23.929,-23.929c0,-13.217 10.713,-23.933 23.929,-23.933l30.229,-0c13.217,-0 23.93,10.716 23.93,23.933c-0,13.217 -10.713,23.929 -23.93,23.929" style="fill:#701919;fill-rule:nonzero;"/><path d="M5874.69,884.227l0,-35.266c0,-11.825 9.588,-21.413 21.413,-21.413c11.825,0 21.408,9.588 21.408,21.413l0,35.266c0,11.825 -9.583,21.413 -21.408,21.413c-11.825,-0 -21.413,-9.588 -21.413,-21.413" style="fill:#701919;fill-rule:nonzero;"/><path d="M7150.56,930.829l-30.229,-0c-13.217,-0 -23.929,-10.713 -23.929,-23.929c-0,-13.217 10.712,-23.934 23.929,-23.934l30.229,0c13.217,0 23.929,10.717 23.929,23.934c0,13.216 -10.712,23.929 -23.929,23.929" style="fill:#701919;fill-rule:nonzero;"/><path d="M7055.77,956.019l-412.454,-0c-40.525,-0 -73.379,-32.854 -73.379,-73.379l-0,-59.796c-0,-40.529 32.854,-73.384 73.379,-73.384l412.454,0c40.525,0 73.379,32.855 73.379,73.384l0,59.796c0,40.525 -32.854,73.379 -73.379,73.379" style="fill:#701919;fill-rule:nonzero;"/><path d="M7076.25,930.829c-0,44.516 -38.346,80.608 -85.646,80.608c-47.3,0 -85.646,-36.092 -85.646,-80.608c0,-44.517 38.346,-80.609 85.646,-80.609c47.3,0 85.646,36.092 85.646,80.609" style="fill:#3d3d3d;fill-rule:nonzero;"/><path d="M6786.57,930.829c-0,44.516 -38.346,80.608 -85.646,80.608c-47.3,0 -85.646,-36.092 -85.646,-80.608c0,-44.517 38.346,-80.609 85.646,-80.609c47.3,0 85.646,36.092 85.646,80.609" style="fill:#3d3d3d;fill-rule:nonzero;"/><path d="M7050.23,930.269c-0,30.771 -26.504,55.713 -59.196,55.713c-32.692,-0 -59.196,-24.942 -59.196,-55.713c0,-30.771 26.504,-55.712 59.196,-55.712c32.692,-0 59.196,24.941 59.196,55.712" style="fill:#232323;fill-rule:nonzero;"/><path d="M6760.12,926.071c-0,30.771 -26.505,55.712 -59.196,55.712c-32.692,0 -59.196,-24.941 -59.196,-55.712c0,-30.771 26.504,-55.713 59.196,-55.713c32.691,0 59.196,24.942 59.196,55.713" style="fill:#232323;fill-rule:nonzero;"/><path d="M6561.12,925.791l-30.229,-0c-13.217,-0 -23.929,-10.713 -23.929,-23.929c-0,-13.217 10.712,-23.934 23.929,-23.934l30.229,0c13.217,0 23.929,10.717 23.929,23.934c0,13.216 -10.712,23.929 -23.929,23.929" style="fill:#701919;fill-rule:nonzero;"/><path d="M6506.96,886.747l0,-35.267c0,-11.825 9.588,-21.413 21.413,-21.413c11.825,0 21.408,9.588 21.408,21.413l-0,35.267c-0,11.825 -9.583,21.412 -21.408,21.412c-11.825,0 -21.413,-9.587 -21.413,-21.412" style="fill:#701919;fill-rule:nonzero;"/><text x="4799.51px" y="741.093px" style="font-family:'Arial-BoldMT', 'Arial';font-weight:700;font-size:473.569px;fill:#701919;">L</text><text x="5371.58px" y="746.302px" style="font-family:'Arial-BoldMT', 'Arial';font-weight:700;font-size:473.569px;fill:#701919;">O<tspan x="5774.51px 6009.01px 6385.57px 6638.85px " y="746.302px 746.302px 746.302px 746.302px "> C O</tspan></text><text x="4821.29px" y="741.093px" style="font-family:'Arial-BoldMT', 'Arial';font-weight:700;font-size:473.569px;fill:#e59033;">L</text><text x="5393.36px" y="746.302px" style="font-family:'Arial-BoldMT', 'Arial';font-weight:700;font-size:473.569px;fill:#e59033;">O<tspan x="5796.29px 6030.79px 6407.36px 6660.63px " y="746.302px 746.302px 746.302px 746.302px "> C O</tspan></text><rect x="4668.52" y="777.171" width="556.696" height="10.075" style="fill:#e59033;"/><rect x="5300.79" y="777.171" width="559.212" height="10.075" style="fill:#e59033;"/><rect x="4666" y="777.171" width="556.696" height="10.075" style="fill:#e59033;"/><rect x="5938.09" y="782.208" width="559.212" height="10.075" style="fill:#e59033;"/><rect x="6570.35" y="784.729" width="559.212" height="10.075" style="fill:#e59033;"/><path d="M4603.04,920.579l-30.229,0c-13.217,0 -23.929,-10.712 -23.929,-23.929c-0,-13.217 10.712,-23.933 23.929,-23.933l30.229,-0c13.217,-0 23.929,10.716 23.929,23.933c0,13.217 -10.712,23.929 -23.929,23.929" style="fill:#701919;fill-rule:nonzero;"/><path d="M4508.25,945.769l-412.454,0c-40.525,0 -73.379,-32.854 -73.379,-73.379l0,-59.796c0,-40.529 32.854,-73.383 73.379,-73.383l412.454,-0c40.525,-0 73.38,32.854 73.38,73.383l-0,59.796c-0,40.525 -32.855,73.379 -73.38,73.379" style="fill:#701919;fill-rule:nonzero;"/><path d="M4528.73,920.579c-0,44.517 -38.346,80.609 -85.646,80.609c-47.3,-0 -85.646,-36.092 -85.646,-80.609c0,-44.516 38.346,-80.608 85.646,-80.608c47.3,-0 85.646,36.092 85.646,80.608" style="fill:#3d3d3d;fill-rule:nonzero;"/><path d="M4239.05,920.579c0,44.517 -38.345,80.609 -85.645,80.609c-47.3,-0 -85.646,-36.092 -85.646,-80.609c-0,-44.516 38.346,-80.608 85.646,-80.608c47.3,-0 85.645,36.092 85.645,80.608" style="fill:#3d3d3d;fill-rule:nonzero;"/><path d="M4502.71,920.02c-0,30.77 -26.504,55.712 -59.196,55.712c-32.692,0 -59.196,-24.942 -59.196,-55.712c0,-30.771 26.504,-55.713 59.196,-55.713c32.692,0 59.196,24.942 59.196,55.713" style="fill:#232323;fill-rule:nonzero;"/><path d="M4212.6,915.821c0,30.771 -26.504,55.713 -59.196,55.713c-32.691,-0 -59.195,-24.942 -59.195,-55.713c-0,-30.771 26.504,-55.712 59.195,-55.712c32.692,-0 59.196,24.941 59.196,55.712" style="fill:#232323;fill-rule:nonzero;"/><path d="M4013.6,915.541l-30.23,0c-13.216,0 -23.929,-10.712 -23.929,-23.929c0,-13.217 10.713,-23.933 23.929,-23.933l30.23,-0c13.216,-0 23.929,10.716 23.929,23.933c-0,13.217 -10.713,23.929 -23.929,23.929" style="fill:#701919;fill-rule:nonzero;"/><path d="M3959.44,876.497l-0,-35.267c-0,-11.825 9.587,-21.412 21.412,-21.412c11.825,-0 21.409,9.587 21.409,21.412l-0,35.267c-0,11.825 -9.584,21.413 -21.409,21.413c-11.825,-0 -21.412,-9.588 -21.412,-21.413" style="fill:#701919;fill-rule:nonzero;"/><rect x="4024.93" y="774.479" width="556.696" height="10.075" style="fill:#e59033;"/><rect x="4022.41" y="774.479" width="556.696" height="10.075" style="fill:#e59033;"/></g><g id="Layer-5" serif:id="Layer 5"><path d="M2691.99,907.696l-30.229,0c-13.217,0 -23.929,-10.712 -23.929,-23.929c-0,-13.217 10.712,-23.933 23.929,-23.933l30.229,-0c13.217,-0 23.929,10.716 23.929,23.933c0,13.217 -10.712,23.929 -23.929,23.929" style="fill:#701919;fill-rule:nonzero;"/><path d="M2597.2,932.886l-412.454,0c-40.525,0 -73.379,-32.854 -73.379,-73.379l-0,-59.796c-0,-40.529 32.854,-73.383 73.379,-73.383l412.454,-0c40.525,-0 73.379,32.854 73.379,73.383l0,59.796c0,40.525 -32.854,73.379 -73.379,73.379" style="fill:#701919;fill-rule:nonzero;"/><path d="M2617.68,907.696c0,44.517 -38.346,80.609 -85.646,80.609c-47.3,-0 -85.646,-36.092 -85.646,-80.609c0.001,-44.516 38.346,-80.608 85.646,-80.608c47.3,-0 85.646,36.092 85.646,80.608" style="fill:#3d3d3d;fill-rule:nonzero;"/><path d="M2328,907.696c0,44.517 -38.346,80.609 -85.646,80.609c-47.3,-0 -85.645,-36.092 -85.645,-80.609c-0,-44.516 38.345,-80.608 85.645,-80.608c47.3,-0 85.646,36.092 85.646,80.608" style="fill:#3d3d3d;fill-rule:nonzero;"/><path d="M2591.66,907.137c-0,30.771 -26.505,55.712 -59.196,55.712c-32.692,0 -59.196,-24.941 -59.196,-55.712c0,-30.771 26.504,-55.713 59.196,-55.713c32.691,0 59.196,24.942 59.196,55.713" style="fill:#232323;fill-rule:nonzero;"/><path d="M2301.55,902.938c-0,30.771 -26.505,55.713 -59.196,55.713c-32.692,-0 -59.196,-24.942 -59.196,-55.713c-0,-30.77 26.504,-55.712 59.196,-55.712c32.691,-0 59.196,24.942 59.196,55.712" style="fill:#232323;fill-rule:nonzero;"/><path d="M2102.55,902.658l-30.23,0c-13.216,0 -23.929,-10.712 -23.929,-23.929c0,-13.216 10.713,-23.933 23.929,-23.933l30.23,-0c13.216,-0 23.929,10.717 23.929,23.933c-0,13.217 -10.713,23.929 -23.929,23.929" style="fill:#701919;fill-rule:nonzero;"/><path d="M2048.39,863.614l0,-35.266c0,-11.825 9.588,-21.413 21.413,-21.413c11.825,0 21.408,9.588 21.408,21.413l-0,35.266c-0,11.825 -9.583,21.413 -21.408,21.413c-11.825,-0 -21.413,-9.588 -21.413,-21.413" style="fill:#701919;fill-rule:nonzero;"/></g><g id="Layer-6" serif:id="Layer 6"><path d="M3329.3,910.215l-30.23,0c-13.216,0 -23.929,-10.712 -23.929,-23.929c0,-13.216 10.713,-23.933 23.929,-23.933l30.23,-0c13.216,-0 23.929,10.717 23.929,23.933c-0,13.217 -10.713,23.929 -23.929,23.929" style="fill:#701919;fill-rule:nonzero;"/><path d="M3234.51,935.405l-412.454,0c-40.525,0 -73.379,-32.854 -73.379,-73.379l0,-59.796c0,-40.529 32.854,-73.383 73.379,-73.383l412.454,-0c40.525,-0 73.38,32.854 73.38,73.383l-0,59.796c-0,40.525 -32.855,73.379 -73.38,73.379" style="fill:#701919;fill-rule:nonzero;"/><path d="M3254.99,910.215c-0,44.517 -38.346,80.609 -85.646,80.609c-47.3,-0 -85.646,-36.092 -85.646,-80.609c0,-44.516 38.346,-80.608 85.646,-80.608c47.3,0 85.646,36.092 85.646,80.608" style="fill:#3d3d3d;fill-rule:nonzero;"/><path d="M2965.3,910.215c-0,44.517 -38.346,80.609 -85.646,80.609c-47.3,-0 -85.646,-36.092 -85.646,-80.609c0,-44.516 38.346,-80.608 85.646,-80.608c47.3,0 85.646,36.092 85.646,80.608" style="fill:#3d3d3d;fill-rule:nonzero;"/><path d="M3228.96,909.655c0,30.771 -26.504,55.713 -59.196,55.713c-32.691,-0 -59.196,-24.942 -59.196,-55.713c0,-30.77 26.505,-55.712 59.196,-55.712c32.692,-0 59.196,24.942 59.196,55.712" style="fill:#232323;fill-rule:nonzero;"/><path d="M2938.85,905.457c0,30.771 -26.504,55.713 -59.196,55.713c-32.691,-0 -59.196,-24.942 -59.196,-55.713c0,-30.771 26.505,-55.712 59.196,-55.712c32.692,-0 59.196,24.941 59.196,55.712" style="fill:#232323;fill-rule:nonzero;"/><path d="M2739.86,905.178l-30.23,-0c-13.216,-0 -23.929,-10.713 -23.929,-23.93c0,-13.216 10.713,-23.933 23.929,-23.933l30.23,0c13.216,0 23.929,10.717 23.929,23.933c-0,13.217 -10.713,23.929 -23.929,23.929" style="fill:#701919;fill-rule:nonzero;"/><path d="M2685.7,866.133l-0,-35.267c-0,-11.825 9.587,-21.408 21.412,-21.408c11.825,-0 21.408,9.583 21.408,21.408l0,35.267c0,11.825 -9.583,21.412 -21.408,21.412c-11.825,0 -21.412,-9.587 -21.412,-21.412" style="fill:#701919;fill-rule:nonzero;"/></g><g id="Layer-7" serif:id="Layer 7"><path d="M3961.56,912.734l-30.229,0c-13.217,0 -23.929,-10.712 -23.929,-23.929c-0,-13.217 10.712,-23.933 23.929,-23.933l30.229,-0c13.217,-0 23.929,10.716 23.929,23.933c0,13.217 -10.712,23.929 -23.929,23.929" style="fill:#701919;fill-rule:nonzero;"/><path d="M3866.77,937.924l-412.454,0c-40.525,0 -73.379,-32.854 -73.379,-73.379l-0,-59.796c-0,-40.529 32.854,-73.383 73.379,-73.383l412.454,-0c40.525,-0 73.379,32.854 73.379,73.383l0,59.796c0,40.525 -32.854,73.379 -73.379,73.379" style="fill:#701919;fill-rule:nonzero;"/><path d="M3887.25,912.734c-0,44.517 -38.346,80.609 -85.646,80.609c-47.3,-0 -85.646,-36.092 -85.646,-80.609c0,-44.516 38.346,-80.608 85.646,-80.608c47.3,-0 85.646,36.092 85.646,80.608" style="fill:#3d3d3d;fill-rule:nonzero;"/><path d="M3597.57,912.734c-0,44.517 -38.346,80.609 -85.646,80.609c-47.3,-0 -85.646,-36.092 -85.646,-80.609c0,-44.516 38.346,-80.608 85.646,-80.608c47.3,-0 85.646,36.092 85.646,80.608" style="fill:#3d3d3d;fill-rule:nonzero;"/><path d="M3861.23,912.175c0,30.77 -26.504,55.712 -59.196,55.712c-32.691,0 -59.195,-24.942 -59.195,-55.712c-0,-30.771 26.504,-55.713 59.195,-55.713c32.692,0 59.196,24.942 59.196,55.713" style="fill:#232323;fill-rule:nonzero;"/><path d="M3571.12,907.976c-0,30.771 -26.504,55.713 -59.196,55.713c-32.692,-0 -59.196,-24.942 -59.196,-55.713c0,-30.771 26.504,-55.712 59.196,-55.712c32.692,-0 59.196,24.941 59.196,55.712" style="fill:#232323;fill-rule:nonzero;"/><path d="M3372.12,907.696l-30.229,0c-13.217,0 -23.929,-10.712 -23.929,-23.929c-0,-13.217 10.712,-23.933 23.929,-23.933l30.229,-0c13.217,-0 23.929,10.716 23.929,23.933c0,13.217 -10.712,23.929 -23.929,23.929" style="fill:#701919;fill-rule:nonzero;"/><path d="M3317.96,868.652l0,-35.267c0,-11.825 9.588,-21.412 21.413,-21.412c11.825,-0 21.408,9.587 21.408,21.412l0,35.267c0,11.825 -9.583,21.413 -21.408,21.413c-11.825,-0 -21.413,-9.588 -21.413,-21.413" style="fill:#701919;fill-rule:nonzero;"/><text x="1610.51px" y="722.998px" style="font-family:'Arial-BoldMT', 'Arial';font-weight:700;font-size:473.569px;fill:#701919;">L</text><text x="2182.58px" y="728.207px" style="font-family:'Arial-BoldMT', 'Arial';font-weight:700;font-size:473.569px;fill:#701919;">O<tspan x="2585.51px 2820.01px 3196.58px 3449.85px " y="728.207px 728.207px 728.207px 728.207px "> C O</tspan></text><text x="1632.3px" y="722.998px" style="font-family:'Arial-BoldMT', 'Arial';font-weight:700;font-size:473.569px;fill:#e59033;">L</text><text x="2204.37px" y="728.207px" style="font-family:'Arial-BoldMT', 'Arial';font-weight:700;font-size:473.569px;fill:#e59033;">O<tspan x="2607.29px 2841.79px 3218.36px 3471.64px " y="728.207px 728.207px 728.207px 728.207px "> C O</tspan></text><rect x="1479.53" y="759.075" width="556.696" height="10.075" style="fill:#e59033;"/><rect x="2111.79" y="759.075" width="559.212" height="10.075" style="fill:#e59033;"/><rect x="1477" y="759.075" width="556.696" height="10.075" style="fill:#e59033;"/><rect x="2749.09" y="764.113" width="559.213" height="10.075" style="fill:#e59033;"/><rect x="3381.35" y="766.633" width="559.213" height="10.075" style="fill:#e59033;"/><path d="M1034.27,357.12c0,50.466 -40.912,91.383 -91.383,91.383c-50.467,-0 -91.379,-40.917 -91.379,-91.383c-0,-50.467 40.912,-91.384 91.379,-91.384c50.471,0 91.383,40.917 91.383,91.384" style="fill:#e2e2e2;fill-rule:nonzero;"/><path d="M1144.62,270.91c-0,56.184 -45.546,101.725 -101.725,101.725c-56.184,0 -101.729,-45.541 -101.729,-101.725c-0,-56.183 45.545,-101.725 101.729,-101.725c56.179,0 101.725,45.542 101.725,101.725" style="fill:#e2e2e2;fill-rule:nonzero;"/><path d="M1289.45,184.702c-0,56.183 -45.546,101.725 -101.725,101.725c-56.184,-0 -101.73,-45.542 -101.73,-101.725c0,-56.184 45.546,-101.725 101.73,-101.725c56.179,-0 101.725,45.541 101.725,101.725" style="fill:#e2e2e2;fill-rule:nonzero;"/><path d="M1248.07,174.357c0,50.466 -50.175,91.383 -112.071,91.383c-61.896,0 -112.071,-40.917 -112.071,-91.383c0,-50.467 50.175,-91.384 112.071,-91.384c61.896,0 112.071,40.917 112.071,91.384" style="fill:#e2e2e2;fill-rule:nonzero;"/><path d="M1092.89,355.395c0,26.663 -27.016,48.275 -60.346,48.275c-33.329,0 -60.345,-21.612 -60.345,-48.275c-0,-26.662 27.016,-48.275 60.345,-48.275c33.33,0 60.346,21.613 60.346,48.275" style="fill:#e2e2e2;fill-rule:nonzero;"/><path d="M941.165,460.57c0,19.996 -16.212,36.209 -36.208,36.209c-19.996,-0 -36.208,-16.213 -36.208,-36.209c-0,-19.995 16.212,-36.208 36.208,-36.208c19.996,0 36.208,16.213 36.208,36.208" style="fill:#e2e2e2;fill-rule:nonzero;"/><path d="M1376.73,101.725c-0,56.183 -45.546,101.725 -101.725,101.725c-56.184,0 -101.73,-45.542 -101.73,-101.725c0,-56.183 45.546,-101.725 101.73,-101.725c56.179,0 101.725,45.542 101.725,101.725" style="fill:#e2e2e2;fill-rule:nonzero;"/><path d="M1403.17,135.082c-17.921,47.179 -70.696,70.896 -117.875,52.975c-47.179,-17.921 -70.9,-70.696 -52.975,-117.875c17.921,-47.179 70.696,-70.896 117.875,-52.975c47.179,17.921 70.896,70.696 52.975,117.875" style="fill:#e2e2e2;fill-rule:nonzero;"/></g></svg>